<svg width="22" height="22" viewBox="0 0 22 22" fill="none" xmlns="http://www.w3.org/2000/svg">
<path d="M3.28297 21.7343H18.418C20.0046 21.7343 21.294 20.4449 21.294 18.8583V4.5266C21.294 2.93999 20.0046 1.65061 18.418 1.65061H17.2773V0.847278C17.2773 0.405431 16.9157 0.0439453 16.4739 0.0439453C16.0321 0.0439453 15.6706 0.405431 15.6706 0.847278V1.65061H6.03044V0.847278C6.03044 0.405431 5.66889 0.0439453 5.22704 0.0439453C4.7852 0.0439453 4.42371 0.405431 4.42371 0.847278V1.65061H3.28297C1.69637 1.65061 0.406982 2.93999 0.406982 4.5266V18.8583C0.406982 20.4449 1.69637 21.7343 3.28297 21.7343ZM2.01371 4.5266C2.01371 3.82771 2.58408 3.25734 3.28297 3.25734H4.42371V4.06067C4.42371 4.50252 4.7852 4.86401 5.22704 4.86401C5.66889 4.86401 6.03038 4.50252 6.03038 4.06067V3.25734H15.6706V4.06067C15.6706 4.50252 16.0321 4.86401 16.4739 4.86401C16.9157 4.86401 17.2772 4.50252 17.2772 4.06067V3.25734H18.418C19.1169 3.25734 19.6872 3.82771 19.6872 4.5266V6.8724H2.01371V4.5266ZM2.01371 8.47907H19.6874V18.8583C19.6874 19.5572 19.117 20.1276 18.4181 20.1276H3.28297C2.58408 20.1276 2.01371 19.5572 2.01371 18.8583V8.47907Z" fill="#A4A4A4"/>
</svg>
