<svg width="20" height="15" viewBox="0 0 20 15" fill="none" xmlns="http://www.w3.org/2000/svg">
<path d="M0.000244141 0H19.9996V14.9814H0.000244141V0Z" fill="#F0F0F0"/>
<path d="M0 1.8916H19.9994V3.76409H0V1.8916ZM0 5.63707H19.9994V7.50956H0V5.63707ZM0 9.38205H19.9994V11.2545H0V9.38205ZM0 13.1275H19.9994V15H0V13.1275Z" fill="#D80027"/>
<path d="M0 0H9.9997V8.06691H0V0Z" fill="#2E52B2"/>
<path d="M3.85598 3.30463L3.69493 3.86133H3.174L3.59551 4.20521L3.43446 4.76187L3.85598 4.41799L4.27721 4.76187L4.1162 4.20521L4.53771 3.86133H4.01675L3.85598 3.30463ZM4.01675 5.87028L3.85598 5.31362L3.69493 5.87028H3.174L3.59551 6.2142L3.43446 6.77086L3.85598 6.42694L4.27721 6.77086L4.1162 6.2142L4.53771 5.87028H4.01675ZM1.81522 5.87028L1.6544 5.31362L1.49335 5.87028H0.972428L1.39394 6.2142L1.23289 6.77086L1.6544 6.42694L2.07568 6.77086L1.91467 6.2142L2.3361 5.87028H1.81522ZM1.6544 3.30463L1.49335 3.86133H0.972428L1.39394 4.20521L1.23289 4.76187L1.6544 4.41799L2.07568 4.76187L1.91467 4.20521L2.3361 3.86133H1.81522L1.6544 3.30463ZM3.85598 1.29559L3.69493 1.85234H3.174L3.59551 2.19627L3.43446 2.75293L3.85598 2.409L4.27721 2.75293L4.1162 2.19627L4.53771 1.85234H4.01675L3.85598 1.29559ZM1.6544 1.29559L1.49335 1.85234H0.972428L1.39394 2.19627L1.23289 2.75293L1.6544 2.409L2.07568 2.75293L1.91467 2.19627L2.3361 1.85234H1.81522L1.6544 1.29559ZM6.05751 3.30463L5.8965 3.86133H5.37558L5.79705 4.20521L5.63608 4.76187L6.05751 4.41799L6.47883 4.76187L6.31778 4.20521L6.73929 3.86133H6.21837L6.05751 3.30463ZM6.21837 5.87028L6.05751 5.31362L5.8965 5.87028H5.37558L5.79705 6.2142L5.63608 6.77086L6.05751 6.42694L6.47883 6.77086L6.31778 6.2142L6.73929 5.87028H6.21837ZM8.41994 5.87028L8.25913 5.31362L8.09808 5.87028H7.57719L7.99863 6.2142L7.83762 6.77086L8.25913 6.42694L8.6804 6.77086L8.51935 6.2142L8.94086 5.87028H8.41994ZM8.25913 3.30463L8.09808 3.86133H7.57719L7.99863 4.20521L7.83762 4.76187L8.25913 4.41799L8.6804 4.76187L8.51935 4.20521L8.94086 3.86133H8.41994L8.25913 3.30463ZM6.05751 1.29559L5.8965 1.85234H5.37558L5.79705 2.19627L5.63608 2.75293L6.05751 2.409L6.47883 2.75293L6.31778 2.19627L6.73929 1.85234H6.21837L6.05751 1.29559ZM8.25913 1.29559L8.09808 1.85234H7.57719L7.99863 2.19627L7.83762 2.75293L8.25913 2.409L8.6804 2.75293L8.51935 2.19627L8.94086 1.85234H8.41994L8.25913 1.29559Z" fill="#F0F0F0"/>
</svg>
