<svg width="41" height="40" viewBox="0 0 41 40" fill="none" xmlns="http://www.w3.org/2000/svg">
<path d="M40.5414 3.99632C40.5426 3.72848 40.4904 3.4631 40.3878 3.2157C40.2852 2.9683 40.1342 2.74385 39.9438 2.5555L38.0263 0.637949C37.8388 0.448407 37.6156 0.297981 37.3695 0.195396C37.1234 0.0928105 36.8594 0.0401079 36.5928 0.040345H36.5862C36.3212 0.0405081 36.0589 0.0934349 35.8146 0.196038C35.5703 0.298641 35.3489 0.448866 35.1632 0.637949L26.4652 9.33595H9.33479V2.03229C9.33479 0.93213 8.44294 0.040345 7.34284 0.040345H6.0149C3.08266 0.0436225 0.706402 2.41988 0.703125 5.35212V34.7336C0.86929 37.6434 3.293 39.9089 6.20748 39.8786H38.5495C39.6496 39.8786 40.5414 38.9869 40.5414 37.8868V11.3279C40.5414 10.2278 39.6496 9.33595 38.5495 9.33595H36.0265L39.9439 5.41852C40.1326 5.23276 40.2826 5.01141 40.3851 4.76729C40.4877 4.52316 40.5408 4.26111 40.5414 3.99632ZM24.4601 16.6397C24.3908 16.6491 24.3202 16.642 24.2542 16.6189C24.1882 16.5958 24.1286 16.5574 24.0803 16.5069C24.0315 16.4584 23.9942 16.3996 23.9712 16.3347C23.9482 16.2699 23.9401 16.2008 23.9475 16.1324L24.1991 13.8749C24.2097 13.8277 24.223 13.7811 24.239 13.7355L26.8543 16.3509C26.8112 16.3602 26.772 16.3814 26.7268 16.3867L24.4601 16.6397ZM27.9386 15.5554L25.033 12.6492L32.2703 5.4119L35.1745 8.31542L27.9386 15.5554ZM33.2066 4.47233L34.1912 3.48832L37.0941 6.39184L36.1101 7.37651L33.2066 4.47233ZM2.03107 5.35212C2.0333 3.15284 3.81562 1.37045 6.0149 1.36829H7.34284C7.70952 1.36829 8.00684 1.66555 8.00684 2.03223V28.5911C8.00684 28.9578 7.70958 29.255 7.34284 29.255H6.0149C5.2609 29.2548 4.51553 29.4154 3.82854 29.7261C3.14155 30.0369 2.52876 30.4906 2.03107 31.057V5.35212ZM38.5495 10.6639C38.9162 10.6639 39.2135 10.9612 39.2135 11.3279V37.8868C39.2135 38.2534 38.9163 38.5508 38.5495 38.5508H6.20748C4.01554 38.5876 2.17927 36.9002 2.03107 34.713V34.5669C2.0333 32.3676 3.81562 30.5853 6.0149 30.583H7.34284C8.44294 30.583 9.33472 29.6912 9.33472 28.5912V10.6639H25.1372L23.6294 12.1718C23.2084 12.5865 22.9436 13.134 22.8798 13.7215L22.6281 15.9836C22.6074 16.2042 22.6284 16.4267 22.6899 16.6396H11.3267C10.96 16.6396 10.6627 16.9369 10.6627 17.3036C10.6627 17.6703 10.9599 17.9675 11.3267 17.9675H13.3186V35.8948C13.3186 36.2615 13.6159 36.5588 13.9826 36.5588C14.3494 36.5588 14.6466 36.2615 14.6466 35.8948V26.5992H21.9503V31.911H17.3024C16.9358 31.911 16.6385 32.2082 16.6385 32.5749C16.6385 32.9416 16.9358 33.2389 17.3024 33.2389H30.5819C31.3153 33.2389 31.9098 32.6444 31.9098 31.911V21.9514C31.9098 21.5848 31.6126 21.2874 31.2459 21.2874C30.8792 21.2874 30.5819 21.5847 30.5819 21.9514V25.2713H14.6466V17.9676H24.4123C24.477 17.9677 24.5418 17.9642 24.6062 17.957L26.8749 17.6987C27.4508 17.6334 27.9883 17.3775 28.4021 16.9717L34.7019 10.664L38.5495 10.6639ZM30.5819 26.5992V31.911H23.2782V26.5992H30.5819ZM39.0076 4.47698L38.0329 5.45234L35.1301 2.54947L36.1054 1.57411C36.1686 1.50927 36.2441 1.45767 36.3274 1.42233C36.4107 1.38699 36.5003 1.36862 36.5908 1.36829C36.683 1.36852 36.7742 1.38707 36.8591 1.42286C36.944 1.45866 37.0209 1.51099 37.0854 1.5768L39.0057 3.49304C39.0718 3.55813 39.1242 3.63576 39.1599 3.72139C39.1956 3.80701 39.2138 3.8989 39.2135 3.99166C39.2132 4.08219 39.1949 4.17175 39.1595 4.25509C39.1242 4.33842 39.0725 4.41386 39.0076 4.47698Z" fill="white"/>
</svg>
