<svg width="24" height="25" viewBox="0 0 24 25" fill="none" xmlns="http://www.w3.org/2000/svg">
<g clip-path="url(#clip0_249_3167)">
<path d="M3.2009 24.2686H20.7997C21.4624 24.2686 21.9996 23.7313 21.9996 23.0686V9.57113L22.1416 9.66512C22.2707 9.75427 22.4166 9.8162 22.5704 9.84715C22.7243 9.87809 22.8828 9.87739 23.0363 9.84509C23.1943 9.8124 23.3441 9.7481 23.4766 9.65607C23.6091 9.56403 23.7216 9.44616 23.8075 9.30953L23.8099 9.30553C24.1613 8.73933 24.0074 7.99708 23.4599 7.61724L12.6586 0.470161C12.4647 0.33878 12.2359 0.268555 12.0017 0.268555C11.7675 0.268555 11.5386 0.33878 11.3447 0.470161L0.537455 7.62089C-0.00896761 8.002 -0.160888 8.74444 0.191889 9.30957C0.276751 9.44608 0.388418 9.56396 0.520137 9.65608C0.651856 9.7482 0.800891 9.81265 0.958228 9.84553C1.03815 9.86162 1.1195 9.86966 1.20101 9.86954C1.4341 9.86986 1.66193 9.80019 1.85497 9.66956L2.00095 9.57157V23.0686C2.00095 23.7313 2.53818 24.2686 3.2009 24.2686ZM21.1996 23.0686C21.1996 23.2895 21.0206 23.4686 20.7997 23.4686H3.2009C2.97999 23.4686 2.80093 23.2895 2.80093 23.0686V9.04278L12.0003 2.96318L21.1996 9.04278V23.0686ZM1.40939 9.00359C1.36796 9.03223 1.32112 9.05212 1.27174 9.06202C1.22235 9.07193 1.17147 9.07165 1.12219 9.0612C1.0702 9.05034 1.02097 9.02899 0.977508 8.99845C0.934047 8.96792 0.897271 8.92884 0.86943 8.8836C0.80843 8.78845 0.78609 8.67358 0.806978 8.5625C0.827867 8.45142 0.890407 8.35252 0.981805 8.28603L11.7895 1.13494C11.8517 1.09271 11.9251 1.07014 12.0003 1.07016C12.077 1.07047 12.1518 1.09374 12.2151 1.13696L23.0156 8.28408C23.1077 8.34992 23.1711 8.44852 23.1928 8.55964C23.2145 8.67077 23.1929 8.78599 23.1323 8.88166C23.1038 8.92745 23.0663 8.96701 23.0221 8.99794C22.9779 9.02886 22.928 9.05053 22.8752 9.06164C22.8255 9.0715 22.7744 9.0712 22.7249 9.06075C22.6754 9.05031 22.6286 9.02993 22.5872 9.00085L12.2211 2.15004C12.1557 2.10733 12.0792 2.08458 12.0011 2.08458C11.923 2.08458 11.8465 2.10733 11.7811 2.15004L1.40939 9.00359Z" fill="#A4A4A4"/>
<path d="M8.65887 7.81648C8.19435 7.35418 7.44351 7.35418 6.97899 7.81648L4.74876 10.0467C4.28622 10.5112 4.28622 11.2622 4.74876 11.7266L8.36811 15.3492L6.14184 17.5758C6.09356 17.6237 6.05843 17.6832 6.03985 17.7486L5.10752 21.0128C5.07482 21.1271 5.0691 21.2473 5.09079 21.3642C5.11249 21.481 5.16102 21.5912 5.23256 21.6861C5.3041 21.781 5.3967 21.8579 5.50305 21.9109C5.60941 21.9639 5.72662 21.9915 5.84545 21.9915C5.91674 21.9914 5.98767 21.9814 6.05625 21.9619L9.32044 21.0288C9.38584 21.0102 9.44535 20.9751 9.49324 20.9268L11.7203 18.7014L15.3404 22.3219C15.8051 22.784 16.5557 22.784 17.0203 22.3219L19.2506 20.0917C19.7131 19.6273 19.7131 18.8763 19.2506 18.4118L15.6324 14.7893L18.695 11.7267C18.8422 11.5797 18.959 11.4051 19.0387 11.2129C19.1183 11.0208 19.1594 10.8148 19.1594 10.6068C19.1594 10.3987 19.1183 10.1927 19.0387 10.0006C18.959 9.80841 18.8422 9.63385 18.695 9.48686L17.5799 8.37174C17.4332 8.2242 17.2586 8.10725 17.0664 8.02768C16.8741 7.9481 16.668 7.90748 16.46 7.90817C16.2519 7.90747 16.0458 7.94804 15.8536 8.02754C15.6614 8.10705 15.4868 8.22391 15.34 8.37134L12.2802 11.4371L8.65887 7.81648ZM7.26218 19.8069C7.02688 19.5738 6.7454 19.3926 6.43585 19.2749L6.68466 18.4034L8.07175 18.9977L8.66612 20.3848L7.79458 20.6336C7.67675 20.3239 7.4954 20.0423 7.26218 19.8069ZM8.85045 18.7845L14.788 12.8469L15.6164 13.6753L9.34723 19.9441L8.85045 18.7845ZM13.9601 10.8875L14.7885 10.0591L17.0107 12.2814L16.182 13.1093L13.9601 10.8875ZM14.2229 12.2814L8.28489 18.219L7.12496 17.7222L13.3941 11.453L14.2229 12.2814ZM5.31432 11.1614C5.16268 11.0096 5.16268 10.7637 5.31432 10.6119L7.54455 8.38165C7.69635 8.23 7.9423 8.23 8.0941 8.38165L8.92645 9.214L8.0941 10.0464C8.04305 10.0957 8.00605 10.1577 7.9869 10.2261C7.96774 10.2944 7.96711 10.3666 7.98509 10.4353C8.00306 10.504 8.03899 10.5666 8.08917 10.6169C8.13936 10.6671 8.202 10.703 8.27067 10.721C8.33935 10.739 8.41159 10.7383 8.47995 10.7192C8.54831 10.7 8.61034 10.663 8.65966 10.6119L9.49202 9.77956L10.3204 10.6087L9.76681 11.1623C9.71577 11.2116 9.67876 11.2736 9.65961 11.342C9.64045 11.4103 9.63983 11.4825 9.6578 11.5512C9.67577 11.6199 9.7117 11.6826 9.76188 11.7328C9.81207 11.783 9.87471 11.8189 9.94338 11.8369C10.0121 11.8549 10.0843 11.8543 10.1527 11.8351C10.221 11.8159 10.2831 11.7789 10.3324 11.7278L10.8859 11.1743L11.7143 12.0026L8.93446 14.7824L5.31432 11.1614ZM5.89268 21.1768L6.21265 20.0489C6.57609 20.2022 6.86528 20.4914 7.01861 20.8548L5.89268 21.1768ZM15.8952 16.1843L15.3416 16.7379C15.2906 16.7872 15.2536 16.8492 15.2344 16.9176C15.2153 16.9859 15.2146 17.0582 15.2326 17.1268C15.2506 17.1955 15.2865 17.2582 15.3367 17.3084C15.3869 17.3586 15.4495 17.3945 15.5182 17.4125C15.5869 17.4305 15.6591 17.4299 15.7275 17.4107C15.7958 17.3915 15.8579 17.3545 15.9072 17.3034L16.4607 16.7491L17.2891 17.5774L16.4567 18.4098C16.4057 18.4591 16.3687 18.5211 16.3495 18.5895C16.3304 18.6579 16.3298 18.7301 16.3477 18.7987C16.3657 18.8674 16.4016 18.9301 16.4518 18.9803C16.502 19.0305 16.5646 19.0664 16.6333 19.0844C16.702 19.1024 16.7742 19.1018 16.8426 19.0826C16.911 19.0634 16.973 19.0264 17.0223 18.9754L17.8547 18.143L18.6866 18.9753C18.8382 19.1271 18.8382 19.3731 18.6866 19.5249L16.4563 21.7551C16.3045 21.9068 16.0586 21.9068 15.9068 21.7551L12.2867 18.135L15.0665 15.3552L15.8952 16.1843ZM16.4604 8.70962C16.5632 8.70928 16.6651 8.72937 16.7601 8.76871C16.8551 8.80805 16.9414 8.86587 17.0139 8.93881L18.129 10.0539C18.4343 10.3597 18.4343 10.8549 18.129 11.1606L17.5759 11.7158L15.3536 9.49355L15.9072 8.94C15.9795 8.86692 16.0657 8.80893 16.1607 8.76938C16.2556 8.72984 16.3575 8.70953 16.4604 8.70962Z" fill="#A4A4A4"/>
</g>
<defs>
<clipPath id="clip0_249_3167">
<rect width="24" height="24" fill="white" transform="translate(0 0.268555)"/>
</clipPath>
</defs>
</svg>
