<svg width="200" height="200" viewBox="0 0 200 200" fill="none" xmlns="http://www.w3.org/2000/svg">
<path d="M199.778 32.1344L135.997 32.2836C135.997 32.2836 132.124 6.57694 152.1 13.2887C152.1 13.2887 153.94 2.13105 164.738 0.603772C169.527 -0.0735402 174.385 1.3885 177.862 5.29926C179.823 7.50346 181.441 10.5045 181.602 14.4637C181.602 14.4633 200.61 5.05904 199.778 32.1344Z" fill="white"/>
<path d="M135.827 32.479L135.803 32.3122C135.722 31.7763 133.894 19.1222 139.98 14.0236C142.776 11.6815 146.803 11.3487 151.95 13.0334C152.29 11.437 154.747 1.81944 164.71 0.41052C169.828 -0.312103 174.674 1.42141 178.008 5.16968C180.315 7.76331 181.584 10.7886 181.782 14.1661C183.135 13.574 189.338 11.1549 194.11 14.2169C198.284 16.8945 200.256 22.9247 199.973 32.1407L199.967 32.3294L199.778 32.3298L135.827 32.479ZM146.095 12.369C143.747 12.369 141.786 13.0205 140.231 14.3224C134.682 18.9718 135.969 30.558 136.166 32.0876L199.587 31.9391C199.834 22.9786 197.921 17.1273 193.9 14.5466C188.728 11.2272 181.757 14.6036 181.688 14.638L181.418 14.7712L181.406 14.4708C181.268 11.0686 180.027 8.02658 177.716 5.42865C174.471 1.7796 169.749 0.0917849 164.766 0.797221C154.231 2.287 152.311 13.2099 152.292 13.3205L152.255 13.547L152.037 13.4736C149.843 12.7369 147.86 12.369 146.095 12.369Z" fill="#293336"/>
<path d="M50.6559 104.601L0.444384 104.718C0.444384 104.718 -2.60484 84.481 13.1214 89.7648C13.1214 89.7648 14.57 80.9812 23.0713 79.7785C26.8415 79.2453 30.6653 80.396 33.4033 83.4748C34.9465 85.2103 36.2206 87.5723 36.3473 90.6893C36.3465 90.6897 51.3108 83.2861 50.6559 104.601Z" fill="white"/>
<path d="M0.276373 104.914L0.251741 104.747C0.188012 104.324 -1.2543 94.34 3.55432 90.3112C5.75903 88.4641 8.92789 88.1945 12.9733 89.5101C13.2779 88.1199 15.2644 80.6851 23.0441 79.5852C27.0891 79.0125 30.916 80.384 33.5496 83.3452C35.3583 85.3787 36.3596 87.7485 36.5273 90.3937C37.701 89.8882 42.5041 88.0785 46.2168 90.4605C49.5159 92.5768 51.0751 97.3363 50.8515 104.607L50.8456 104.796L0.276373 104.914ZM8.39577 89.0824C6.55701 89.0824 5.02165 89.5921 3.8065 90.6101C-0.505188 94.222 0.446838 103.188 0.616131 104.523L50.4664 104.406C50.6536 97.3898 49.1535 92.8096 46.0077 90.7905C41.9579 88.1899 36.4886 90.8374 36.4342 90.8643L36.1645 90.9975L36.1523 90.6972C36.0444 88.0285 35.0701 85.6427 33.2579 83.6045C30.7135 80.7433 27.0117 79.4184 23.1 79.9719C14.8434 81.1394 13.3299 89.7101 13.3154 89.796L13.2779 90.0226L13.0601 89.9492C11.3371 89.3711 9.78022 89.0824 8.39577 89.0824Z" fill="#293336"/>
<path d="M190.72 150.758L135.497 150.887C135.497 150.887 132.144 128.63 149.439 134.441C149.439 134.441 151.032 124.781 160.382 123.458C164.528 122.872 168.734 124.137 171.745 127.523C173.442 129.432 174.843 132.03 174.982 135.458C174.982 135.458 191.44 127.316 190.72 150.758Z" fill="white"/>
<path d="M135.329 151.082L135.304 150.916C135.234 150.451 133.65 139.481 138.93 135.057C141.353 133.027 144.837 132.734 149.291 134.186C149.609 132.717 151.77 124.479 160.355 123.265C164.797 122.638 168.999 124.142 171.891 127.393C173.884 129.634 174.984 132.247 175.163 135.162C176.406 134.623 181.723 132.59 185.827 135.222C189.449 137.546 191.16 142.775 190.915 150.763L190.909 150.952L135.329 151.082ZM144.242 133.671C142.214 133.671 140.522 134.232 139.182 135.356C134.414 139.351 135.488 149.281 135.669 150.691L190.53 150.563C190.738 142.829 189.086 137.779 185.617 135.552C181.154 132.686 175.13 135.603 175.069 135.633L174.8 135.766L174.787 135.466C174.668 132.527 173.596 129.898 171.599 127.653C168.796 124.501 164.718 123.041 160.41 123.651C151.314 124.938 149.648 134.377 149.633 134.472L149.595 134.699L149.377 134.625C147.481 133.989 145.766 133.671 144.242 133.671Z" fill="#293336"/>
<path d="M107.879 116.643C108.499 114.391 110.589 113.624 112.689 113.915C118.959 114.785 124.142 118.687 128.901 122.586C133.19 126.1 137.192 129.93 140.699 134.231C147.53 142.611 152.467 152.295 155.169 162.768C156.785 169.032 157.616 175.502 157.926 181.956C158.167 186.982 150.347 186.969 150.106 181.956C149.642 172.266 147.803 162.489 143.724 153.631C139.567 144.605 133.447 136.807 125.966 130.291C121.501 126.402 116.668 122.289 110.61 121.449C108.517 121.158 107.372 118.487 107.879 116.643Z" fill="#293336"/>
<path d="M139.987 180.539L139.945 193.557L175.346 194.587L191.376 195.054C191.376 195.054 193.72 180.305 176.116 178.085C174.39 177.866 172.462 177.771 170.33 177.822C170.635 177.326 171.574 175.646 171.091 173.5C170.998 173.084 170.465 170.937 168.562 169.806C166.084 168.316 159.384 168.769 156.161 171.5L150.138 171.448C150.138 171.448 140.926 167.856 137.661 172.398C134.903 176.786 139.987 180.539 139.987 180.539Z" fill="#FDEBC5"/>
<path d="M191.542 195.255L139.748 193.747L139.791 180.634C139.145 180.119 134.868 176.474 137.495 172.294C140.75 167.765 149.462 170.981 150.175 171.254L156.091 171.304C159.358 168.593 166.026 168.054 168.663 169.638C170.553 170.763 171.146 172.846 171.282 173.458C171.686 175.256 171.141 176.749 170.671 177.62C172.625 177.586 174.463 177.679 176.14 177.892C181.91 178.619 186.167 180.759 188.791 184.253C192.462 189.138 191.578 195.026 191.569 195.085L191.542 195.255ZM140.141 193.368L191.205 194.854C191.316 193.868 191.703 188.775 188.476 184.484C185.917 181.08 181.75 178.993 176.091 178.279C174.334 178.057 172.399 177.967 170.334 178.018L169.975 178.026L170.162 177.72C170.621 176.974 171.326 175.438 170.9 173.543C170.772 172.97 170.219 171.018 168.462 169.974C165.966 168.473 159.367 169.038 156.287 171.648L156.231 171.695L150.066 171.63C149.975 171.595 140.957 168.146 137.819 172.512C135.198 176.684 139.901 180.233 140.102 180.382L140.182 180.44L140.141 193.368Z" fill="#293336"/>
<path d="M191.38 195.056C191.592 195.23 192.475 195.996 192.562 197.229C192.667 198.706 191.547 199.666 191.38 199.805H139.728C139.434 199.515 138.408 198.437 138.361 196.8C138.309 195.013 139.457 193.824 139.728 193.557L191.38 195.056Z" fill="white"/>
<path d="M191.451 200H139.648L139.591 199.944C139.178 199.537 138.213 198.419 138.165 196.806C138.115 195.063 139.146 193.856 139.591 193.418L139.65 193.36L139.734 193.362L191.453 194.863L191.505 194.905C191.853 195.191 192.671 195.989 192.758 197.216C192.863 198.705 191.826 199.689 191.505 199.955L191.451 200ZM139.81 199.609H191.309C191.591 199.36 192.456 198.489 192.368 197.243C192.296 196.222 191.638 195.534 191.307 195.249L139.807 193.755C139.373 194.199 138.512 195.277 138.556 196.794C138.597 198.198 139.406 199.196 139.81 199.609Z" fill="#293336"/>
<path d="M175.349 194.587L191.379 195.054C191.379 195.054 193.722 180.305 176.119 178.085C174.317 180.823 172.642 185.956 175.349 194.587Z" fill="white"/>
<path d="M191.543 195.254L175.202 194.778L175.16 194.645C172.446 185.99 174.093 180.804 175.953 177.978L176.02 177.876L176.141 177.891C181.911 178.618 186.168 180.759 188.793 184.252C192.463 189.137 191.579 195.025 191.57 195.084L191.543 195.254ZM175.492 194.396L191.205 194.854C191.317 193.867 191.703 188.774 188.477 184.483C185.936 181.104 181.811 179.022 176.213 178.294C174.437 181.058 172.914 186.069 175.492 194.396ZM143.581 182.323C142.899 182.156 142.232 181.93 141.59 181.646C140.993 181.381 140.42 181.065 139.878 180.701L140.098 180.377C140.62 180.729 141.173 181.034 141.749 181.289C142.37 181.564 143.014 181.783 143.674 181.944L143.581 182.323ZM159.49 180.213L170.281 177.637L170.372 178.016L159.581 180.592L159.49 180.213ZM162.675 184.708L172.97 177.706L173.19 178.028L162.895 185.03L162.675 184.708Z" fill="#293336"/>
<path d="M157.353 180.627C157.353 181.186 157.878 181.64 158.525 181.64C159.173 181.64 159.698 181.186 159.698 180.627C159.698 180.068 159.173 179.614 158.525 179.614C157.878 179.614 157.353 180.068 157.353 180.627Z" fill="white"/>
<path d="M158.525 181.835C157.771 181.835 157.158 181.293 157.158 180.627C157.158 179.961 157.771 179.418 158.525 179.418C159.28 179.418 159.893 179.961 159.893 180.627C159.893 181.293 159.28 181.835 158.525 181.835ZM158.525 179.809C157.987 179.809 157.548 180.176 157.548 180.627C157.548 181.078 157.987 181.445 158.525 181.445C159.064 181.445 159.503 181.078 159.503 180.627C159.503 180.176 159.064 179.809 158.525 179.809Z" fill="#293336"/>
<path d="M161.951 186.458C162.599 186.458 163.124 186.005 163.124 185.445C163.124 184.886 162.599 184.432 161.951 184.432C161.304 184.432 160.779 184.886 160.779 185.445C160.779 186.005 161.304 186.458 161.951 186.458Z" fill="white"/>
<path d="M161.949 186.653C161.194 186.653 160.58 186.111 160.58 185.444C160.58 184.778 161.194 184.236 161.949 184.236C162.704 184.236 163.318 184.778 163.318 185.444C163.318 186.111 162.704 186.653 161.949 186.653ZM161.949 184.627C161.41 184.627 160.971 184.994 160.971 185.445C160.971 185.896 161.41 186.263 161.949 186.263C162.489 186.263 162.927 185.896 162.927 185.445C162.927 184.994 162.489 184.627 161.949 184.627ZM38.7102 143.777C41.2727 131.491 45.6145 119.085 53.1642 108.928C57.4966 103.1 62.6958 98.1039 68.903 94.2919C73.2018 91.6522 77.1342 98.4066 72.8495 101.037C52.5848 113.482 45.9867 139.476 43.9028 161.627C43.2909 168.132 43.0458 174.666 43.0716 181.197C43.0915 186.225 35.272 186.231 35.2521 181.197C35.2028 168.666 36.1486 156.059 38.7102 143.777Z" fill="#293336"/>
<path d="M52.8384 180.539L52.8806 193.557L17.4793 194.587L1.44927 195.054C1.44927 195.054 -0.893844 180.305 16.7095 178.085C18.4352 177.866 20.3639 177.771 22.4955 177.822C22.1909 177.326 21.2518 175.646 21.7343 173.5C21.8273 173.084 22.3602 170.937 24.2635 169.806C26.7419 168.316 33.4417 168.769 36.6645 171.5L42.6875 171.448C42.6875 171.448 51.8993 167.856 55.1647 172.398C57.9226 176.786 52.8384 180.539 52.8384 180.539Z" fill="#FDEBC5"/>
<path d="M1.28192 195.255L1.25494 195.085C1.24595 195.026 0.36195 189.138 4.03243 184.253C6.65745 180.76 10.9144 178.619 16.684 177.892C18.3613 177.679 20.2024 177.586 22.1526 177.621C21.6834 176.749 21.1384 175.255 21.5419 173.458C21.6791 172.846 22.273 170.761 24.1622 169.638C26.7986 168.054 33.4659 168.593 36.7333 171.304L42.6484 171.254C43.3603 170.981 52.0732 167.767 55.3218 172.284C57.9543 176.473 53.679 180.119 53.0331 180.635L53.0753 193.748L52.8849 193.754L1.28192 195.255ZM21.3859 178.005C19.7336 178.005 18.1729 178.097 16.7333 178.279C11.0739 178.993 6.90728 181.08 4.34795 184.484C1.12123 188.775 1.5079 193.867 1.61933 194.854L52.6828 193.368L52.6413 180.441L52.7211 180.382C52.9224 180.233 57.6259 176.684 54.9973 172.501C51.8637 168.145 42.8478 171.595 42.7567 171.63L42.6871 171.644L36.5917 171.696L36.5362 171.648C33.4565 169.039 26.8572 168.474 24.3624 169.973C22.6065 171.017 22.0513 172.969 21.9231 173.543C21.4973 175.437 22.2023 176.974 22.6605 177.721L22.8478 178.027L22.4892 178.018C22.1174 178.009 21.7491 178.005 21.3859 178.005Z" fill="#293336"/>
<path d="M1.44317 195.056C1.23126 195.23 0.34844 195.996 0.261252 197.229C0.156862 198.706 1.27623 199.666 1.44317 199.805H53.0954C53.3898 199.515 54.4154 198.437 54.4631 196.8C54.5151 195.013 53.3664 193.824 53.0954 193.557L1.44317 195.056Z" fill="white"/>
<path d="M53.1764 200H1.37284L1.3181 199.955C0.998286 199.688 -0.0389738 198.704 0.0665897 197.216C0.153386 195.99 0.970917 195.192 1.31889 194.905L1.37089 194.863L53.174 193.36L53.2331 193.418C53.6788 193.856 54.709 195.063 54.6586 196.806C54.6117 198.419 53.646 199.537 53.2331 199.944L53.1764 200ZM1.51594 199.609H53.0149C53.4188 199.196 54.2273 198.198 54.268 196.794C54.3122 195.277 53.4512 194.199 53.0173 193.755L1.5175 195.249C1.18635 195.535 0.528723 196.224 0.456784 197.243C0.368814 198.487 1.23326 199.359 1.51594 199.609Z" fill="#293336"/>
<path d="M17.4793 194.587L1.44927 195.054C1.44927 195.054 -0.893846 180.305 16.7095 178.085C18.5111 180.823 20.186 185.956 17.4793 194.587Z" fill="white"/>
<path d="M1.28192 195.255L1.25494 195.085C1.24595 195.026 0.36195 189.138 4.03243 184.253C6.65745 180.759 10.914 178.619 16.684 177.892L16.8052 177.876L16.8721 177.978C18.732 180.805 20.3795 185.991 17.665 194.646L17.6235 194.778L1.28192 195.255ZM16.6113 178.295C11.0141 179.022 6.88891 181.104 4.34795 184.484C1.12123 188.774 1.5079 193.867 1.61933 194.854L17.3327 194.396C19.9115 186.07 18.3875 181.058 16.6113 178.295ZM49.2437 182.323L49.1515 181.944C49.8113 181.783 50.4556 181.564 51.0766 181.289C51.6528 181.034 52.2054 180.729 52.7281 180.377L52.9475 180.7C52.4057 181.065 51.8329 181.382 51.2358 181.646C50.5932 181.93 49.9265 182.157 49.2437 182.323ZM22.4478 178.011L22.5389 177.631L33.3283 180.217L33.2372 180.597L22.4478 178.011ZM19.6465 178.018L19.8666 177.695L30.1559 184.705L29.9358 185.028L19.6465 178.018Z" fill="#293336"/>
<path d="M35.4711 180.627C35.4711 181.186 34.9461 181.64 34.2989 181.64C33.6516 181.64 33.1262 181.186 33.1262 180.627C33.1262 180.068 33.6512 179.614 34.2989 179.614C34.9465 179.614 35.4711 180.068 35.4711 180.627Z" fill="white"/>
<path d="M34.2985 181.835C33.5442 181.835 32.9309 181.293 32.9309 180.627C32.9309 179.961 33.5442 179.418 34.2985 179.418C35.0528 179.418 35.6665 179.961 35.6665 180.627C35.6665 181.293 35.0524 181.835 34.2985 181.835ZM34.2985 179.809C33.7598 179.809 33.3215 180.176 33.3215 180.627C33.3215 181.078 33.7598 181.445 34.2985 181.445C34.8375 181.445 35.2758 181.078 35.2758 180.627C35.2758 180.176 34.8375 179.809 34.2985 179.809Z" fill="#293336"/>
<path d="M32.0468 185.445C32.0468 186.005 31.5218 186.458 30.8746 186.458C30.2273 186.458 29.7019 186.005 29.7019 185.445C29.7019 184.886 30.2269 184.432 30.8746 184.432C31.5222 184.432 32.0468 184.886 32.0468 185.445Z" fill="white"/>
<path d="M30.8746 186.653C30.1203 186.653 29.5066 186.111 29.5066 185.445C29.5066 184.779 30.1203 184.236 30.8746 184.236C31.6289 184.236 32.2421 184.779 32.2421 185.445C32.2421 186.111 31.6289 186.653 30.8746 186.653ZM30.8746 184.627C30.3355 184.627 29.8972 184.994 29.8972 185.445C29.8972 185.896 30.3355 186.263 30.8746 186.263C31.4132 186.263 31.8515 185.896 31.8515 185.445C31.8515 184.994 31.4132 184.627 30.8746 184.627Z" fill="#293336"/>
<path d="M198.879 94.2139L1.01123 26.1545L107.298 181.737L121.164 112.246L198.879 94.2139Z" fill="#4F8280"/>
<path d="M107.402 182.231L107.139 181.848L0.519775 25.7782L1.07731 25.97L199.588 94.2508L121.333 112.408L107.402 182.231ZM1.50738 26.5313L107.2 181.243L120.999 112.085L121.122 112.056L198.175 94.1778L1.50738 26.5313Z" fill="#293336"/>
<path d="M121.166 112.246L107.301 181.737L1.16577 26.3629L121.166 112.246Z" fill="#95BDBC"/>
<path d="M107.401 182.231L107.139 181.847L0.380615 25.5615L121.382 112.161L121.357 112.284L107.401 182.231ZM1.94921 27.1646L107.199 181.243L120.949 112.332L1.94921 27.1646Z" fill="#293336"/>
<path d="M108.468 63.0365L129.142 70.1201L142.643 74.7422C144.695 71.308 146.495 67.4296 147.923 63.224C148.661 61.0611 149.272 58.8572 149.754 56.6235C151.027 50.8245 151.344 45.2744 150.8 40.425C149.859 32.1332 146.384 25.8956 140.771 24.0062C133.618 21.6138 124.961 26.8854 118.297 36.6045C118.277 36.6143 118.267 36.624 118.267 36.6435C115.502 40.7016 113.075 45.5381 111.264 50.9007C109.856 55.0372 108.93 59.1382 108.468 63.0365Z" fill="white"/>
<path d="M142.731 74.9776L108.256 63.1699L108.275 63.0137C108.75 59.0072 109.694 54.9109 111.08 50.8373C112.825 45.6707 115.247 40.7358 118.087 36.5625C118.101 36.5238 118.125 36.4896 118.157 36.4637C125.125 26.3161 133.811 21.4718 140.834 23.8209C146.305 25.663 150.008 31.7065 150.995 40.403C151.553 45.3738 151.19 50.997 149.945 56.6655C149.461 58.906 148.849 61.1168 148.11 63.2867C146.705 67.422 144.923 71.3098 142.812 74.8416L142.731 74.9776ZM108.682 62.9027L142.557 74.5053C144.618 71.0328 146.362 67.217 147.739 63.1605C148.474 61.0046 149.083 58.8081 149.563 56.5819C150.799 50.9544 151.16 45.375 150.606 40.4463C149.637 31.9073 146.03 25.9821 140.71 24.1908C133.857 21.8976 125.328 26.6954 118.459 36.7141L118.427 36.7574C115.6 40.9065 113.188 45.8183 111.451 50.9623C110.09 54.957 109.159 58.9732 108.682 62.9027Z" fill="#293336"/>
<path d="M150.819 40.6186L150.776 40.2303C156.441 39.6061 158.167 33.3478 158.184 33.2849L158.562 33.3849C158.544 33.4509 156.747 39.9655 150.819 40.6186ZM152.809 47.5729C152.249 47.5729 151.665 47.514 151.055 47.3827L151.137 47.0003C157.218 48.31 160.72 42.1041 160.756 42.0416L161.098 42.2298C161.065 42.2888 158.084 47.5729 152.809 47.5729ZM151.572 56.9944C150.983 56.9944 150.364 56.9378 149.715 56.812L149.79 56.4284C155.927 57.6201 159.328 52.3411 159.362 52.2876L159.693 52.495C159.662 52.5454 156.796 56.9944 151.572 56.9944ZM108.468 63.0363L129.142 70.12C131.016 66.8611 132.461 62.9804 133.957 59.0111C134.258 58.198 134.55 57.3811 134.831 56.5608L122.85 48.6284L136.857 48.8022C138.823 38.3995 137.115 30.1605 132.01 28.6875C128.064 27.5571 122.954 30.7624 118.297 36.6043C118.277 36.6141 118.267 36.6238 118.267 36.6434C115.502 40.7014 113.075 45.5379 111.264 50.9005C109.856 55.0371 108.93 59.138 108.468 63.0363Z" fill="#293336"/>
<path d="M129.232 70.3571L108.256 63.1703L108.275 63.0141C108.75 59.0076 109.694 54.9113 111.08 50.8377C112.825 45.6711 115.247 40.7362 118.087 36.5629C118.102 36.5212 118.129 36.4848 118.164 36.4582C123.095 30.2824 128.16 27.3829 132.065 28.5C137.152 29.9679 139.108 37.9511 137.05 48.8385L137.019 48.9995L123.512 48.8319L135.067 56.4812L135.017 56.6241C134.735 57.446 134.443 58.2644 134.141 59.0791L134.031 59.3716C132.548 63.3074 131.148 67.0248 129.313 70.2173L129.232 70.3571ZM108.682 62.9031L129.053 69.8829C130.834 66.749 132.21 63.0973 133.665 59.2345L133.775 58.9424C134.077 58.1338 134.356 57.337 134.598 56.6397L122.19 48.4245L136.696 48.605C138.665 38.0129 136.811 30.2757 131.957 28.875C128.262 27.8153 123.214 30.7515 118.451 36.7258L118.43 36.7532C115.602 40.9034 113.189 45.8168 111.45 50.9627C110.09 54.9574 109.159 58.9736 108.682 62.9031Z" fill="#293336"/>
<path d="M45.8582 41.9768C46.2417 38.5371 46.9795 34.9502 48.1012 31.3238C48.2095 30.9699 48.3174 30.6262 48.4257 30.282C48.5942 29.7474 48.7747 29.2166 48.9668 28.6899C49.0063 28.5915 49.0356 28.513 49.0751 28.4149C49.2127 28.0513 49.3406 27.6974 49.4786 27.3337C49.6536 26.851 49.8405 26.3726 50.0393 25.899C50.3047 25.2112 50.5999 24.5429 50.8951 23.8941C50.9039 23.8629 50.9172 23.8331 50.9346 23.8058C51.1512 23.3339 51.3772 22.8625 51.5938 22.4004C52.2725 20.9852 52.9907 19.6388 53.748 18.381C54.0135 17.9092 54.3087 17.4377 54.6039 16.9756C54.8893 16.5135 55.1845 16.0811 55.4891 15.639C55.7039 15.3077 55.9336 14.9863 56.1776 14.6757C56.325 14.4695 56.4728 14.2629 56.6202 14.0761C56.8168 13.8109 57.0334 13.5453 57.2301 13.2996C58.0367 12.2286 58.873 11.2064 59.7386 10.2826C59.7484 10.2923 59.7581 10.2728 59.7581 10.2728C65.4539 4.18949 71.9656 1.26072 77.6023 3.09853C87.754 6.41048 91.1574 23.9526 85.1962 42.2713C83.8782 46.3399 82.1959 50.1136 80.2777 53.4747L67.8834 49.3374L45.9668 42.0159" fill="white"/>
<path d="M80.3688 53.7108L67.8219 49.5227L45.6646 41.9547C46.0598 38.4135 46.8168 34.8167 47.915 31.2657C48.0096 30.9548 48.105 30.6517 48.2 30.3486L48.2395 30.2232C48.4076 29.6908 48.5957 29.1373 48.7838 28.6221L48.8944 28.3417C48.9593 28.1694 49.0234 27.996 49.0875 27.8225C49.1564 27.637 49.2252 27.4518 49.2959 27.264C49.4721 26.7786 49.66 26.2976 49.8597 25.8215C50.1369 25.1023 50.4489 24.402 50.7171 23.8126C50.7214 23.7965 50.7375 23.7485 50.7715 23.6969C50.9005 23.4102 51.0483 23.097 51.1949 22.7864L51.4162 22.3165C52.1098 20.8709 52.8378 19.5128 53.5799 18.2792C53.8528 17.7949 54.1542 17.3148 54.4384 16.8699C54.7289 16.3996 55.037 15.9489 55.3275 15.527C55.5351 15.2067 55.7635 14.8864 56.0227 14.5548C56.1756 14.3415 56.3206 14.1388 56.466 13.9548C56.6334 13.7294 56.8179 13.4994 56.9927 13.2822L57.0771 13.1767C57.9545 12.0112 58.7795 11.019 59.5954 10.1483L59.7362 9.99796L59.7416 10.0038C65.6849 3.71895 72.2087 1.13469 77.6632 2.91274C87.9052 6.25438 91.3685 23.9376 85.3826 42.3316C84.0932 46.3115 82.4331 50.0934 80.4481 53.5714L80.3688 53.7108ZM46.0704 41.8445L80.1877 53.2386C82.1242 49.8223 83.7468 46.1131 85.0108 42.2113C90.9302 24.0215 87.5795 6.55906 77.5416 3.2846C72.2064 1.54444 65.7838 4.13221 59.9207 10.3858L59.8879 10.4507L59.8378 10.4632C59.0457 11.3124 58.2434 12.2787 57.3864 13.4169L57.2977 13.5271C57.1264 13.7408 56.9446 13.9665 56.7769 14.1923C56.6318 14.3763 56.4903 14.5743 56.348 14.7724C56.1021 15.0859 55.8703 15.4101 55.6532 15.7442C55.3477 16.1811 55.0532 16.6257 54.77 17.0773C54.4731 17.5355 54.1889 18.0018 53.9177 18.4757C53.1787 19.7038 52.457 21.0506 51.7696 22.4837L51.5484 22.9532C51.4025 23.2626 51.2551 23.5743 51.112 23.8864C51.0988 23.9081 51.0883 23.9313 51.0807 23.9555C50.8075 24.5586 50.4982 25.2523 50.2222 25.9683C50.0236 26.441 49.8369 26.9186 49.6623 27.4007C49.5903 27.589 49.5227 27.7733 49.4543 27.9581C49.3898 28.1323 49.3253 28.3069 49.2584 28.4834L49.1485 28.7619C48.9585 29.2842 48.7798 29.8104 48.6125 30.3404L48.573 30.4658C48.4784 30.7673 48.3834 31.07 48.2884 31.3802C47.2136 34.857 46.4676 38.3771 46.0704 41.8445Z" fill="#293336"/>
<path d="M59.6044 10.4226C55.2391 6.36104 57.6925 0.0628877 57.7179 0L58.0808 0.144915C58.0565 0.205459 55.7036 6.25909 59.8706 10.1363L59.6044 10.4226ZM55.6942 15.8192C49.7698 13.1189 50.7089 5.7681 50.7191 5.69388L51.1061 5.74739C51.0968 5.81848 50.1991 12.885 55.8565 15.4637L55.6942 15.8192ZM50.8086 24.068C44.9342 21.2471 45.3807 14.7181 45.3862 14.6528L45.7756 14.6833C45.7709 14.7462 45.3486 21.0131 50.9783 23.7165L50.8086 24.068Z" fill="#293336"/>
<path d="M48.1003 31.3231C47.0576 34.8218 46.4086 38.5462 45.9656 42.0156L67.8821 49.3371C69.5938 45.9271 71.0791 42.0746 72.2595 37.947C72.5082 37.0799 72.741 36.2083 72.9578 35.3327L60.3469 28.4338L74.2758 27.1463L74.4236 27.1268C75.0335 21.6333 74.7481 16.7785 73.6267 13.2208C72.5547 9.69284 70.6561 7.40271 68.069 6.91132C64.7442 6.31174 60.8489 8.78858 57.2288 13.2993C57.0322 13.545 56.8156 13.8102 56.6189 14.0758C56.4666 14.2722 56.3191 14.4721 56.1763 14.6754C55.9324 14.986 55.7026 15.3074 55.4878 15.6387C55.1828 16.0808 54.8877 16.5132 54.6026 16.9753C54.3074 17.4374 54.0123 17.9089 53.7468 18.3807C52.9895 19.6389 52.2712 20.9849 51.5925 22.4001C51.3763 22.8618 51.1499 23.3336 50.9333 23.8055C50.9138 23.8348 50.904 23.8645 50.8938 23.8937C50.5986 24.5425 50.3035 25.2105 50.038 25.8987C49.8393 26.3723 49.6523 26.8506 49.4773 27.3334C49.3397 27.6971 49.2119 28.051 49.0738 28.4146C49.0343 28.5131 49.005 28.5916 48.9655 28.6896C48.7734 29.2163 48.593 29.7471 48.4244 30.2817C48.3165 30.6255 48.2082 30.9692 48.1003 31.3231Z" fill="#293336"/>
<path d="M67.9826 49.5762L67.8219 49.5227L45.6646 41.9546C46.1963 37.7892 47.0052 34.3175 47.9146 31.2665C48.0096 30.9548 48.105 30.6516 48.2 30.3485L48.2395 30.2232C48.7103 28.7306 49.2971 27.2803 49.8601 25.8214C50.2577 24.7914 50.7238 23.7852 51.1953 22.7868C51.9217 21.2486 52.7033 19.7373 53.5806 18.2792C54.1135 17.3331 54.7125 16.4207 55.3287 15.527C55.8562 14.7586 56.4116 14.0099 56.9939 13.2821L57.0783 13.1767C60.8974 8.41829 64.8122 6.12621 68.1058 6.71876C70.7109 7.21366 72.6849 9.44208 73.816 13.1634C74.9557 16.7796 75.2341 21.6161 74.6202 27.1479L74.6034 27.3002L74.3035 27.3401L61.0037 28.5689L73.1861 35.2335L73.1494 35.3796C72.932 36.2575 72.6986 37.1315 72.4491 38.0009C71.268 42.1292 69.7909 45.9728 68.0589 49.4246L67.9826 49.5762ZM46.181 41.8816L67.7848 49.0985C69.4734 45.7076 70.9161 41.939 72.0734 37.8935C72.2853 37.1607 72.4957 36.3748 72.7334 35.4315L59.6939 28.2978L74.248 26.953C74.8341 21.5384 74.5561 16.8132 73.4422 13.2794C72.3553 9.70378 70.4853 7.56872 68.0339 7.10312C64.8916 6.53713 61.1077 8.78 57.3829 13.4212L57.298 13.527C57.1268 13.7407 56.945 13.9665 56.7773 14.1922C53.1709 19.0506 50.4302 24.575 48.6125 30.3403L48.573 30.4657C48.4784 30.7669 48.3834 31.0692 48.2884 31.3794C47.3977 34.3698 46.7077 37.8068 46.181 41.8816Z" fill="#293336"/>
<path d="M95.3573 61.9079C99.0471 61.9079 102.038 58.9196 102.038 55.2332C102.038 51.5469 99.0471 48.5585 95.3573 48.5585C91.6675 48.5585 88.6763 51.5469 88.6763 55.2332C88.6763 58.9196 91.6675 61.9079 95.3573 61.9079Z" fill="#D9997D"/>
<path d="M95.3578 62.1032C91.5662 62.1032 88.481 59.0213 88.481 55.2332C88.481 51.4451 91.5662 48.3632 95.3578 48.3632C99.1495 48.3632 102.234 51.4451 102.234 55.2332C102.234 59.0213 99.1495 62.1032 95.3578 62.1032ZM95.3578 48.7538C91.7816 48.7538 88.8719 51.6603 88.8719 55.2332C88.8719 58.8061 91.7812 61.7126 95.3578 61.7126C98.9337 61.7126 101.843 58.8061 101.843 55.2332C101.843 51.6603 98.9337 48.7538 95.3578 48.7538Z" fill="#293336"/>
<path d="M88.6411 75.4795C100.767 79.2399 112.411 76.0639 114.759 68.4111L70.9971 53.3223C70.8231 53.722 70.6748 54.1323 70.553 54.5508C68.3189 62.3227 76.4227 71.6957 88.6411 75.4795Z" fill="white"/>
<path d="M98.7265 77.2609C95.4767 77.2609 92.0193 76.732 88.5826 75.6664C76.277 71.8553 68.1045 62.3592 70.3647 54.4975C70.4885 54.0709 70.6396 53.6528 70.8171 53.2456L70.889 53.0792L115.001 68.2886L114.946 68.4691C114.12 71.1584 112.131 73.3997 109.193 74.9512C106.285 76.4855 102.659 77.2605 98.7265 77.2609ZM71.1056 53.567C70.9645 53.9059 70.8426 54.2524 70.7404 54.6049C68.5384 62.2639 76.5945 71.5447 88.6987 75.2934C96.1977 77.619 103.79 77.3612 109.01 74.6055C111.788 73.1384 113.688 71.042 114.515 68.5339L71.1056 53.567Z" fill="#293336"/>
<path d="M97.8534 77.1204L102.348 64.0265L102.718 64.153L98.2228 77.247L97.8534 77.1204ZM87.9351 75.4432L87.5625 75.3248L92.3074 60.4536L92.68 60.5716L87.9351 75.4432ZM77.8479 70.0079L81.9696 57.1272L82.3422 57.2459L78.2205 70.127L77.8479 70.0079Z" fill="#293336"/>
</svg>
